<mxfile host="app.diagrams.net" modified="2023-08-30T19:50:23.880Z" agent="Mozilla/5.0 (Windows NT 10.0; Win64; x64) AppleWebKit/537.36 (KHTML, like Gecko) Chrome/115.0.0.0 Safari/537.36 OPR/101.0.0.0" etag="divU5UJz_jepLJ0dSva5" version="21.7.1" type="google">
  <diagram name="Página-1" id="-XUJO3Oz49j5nqVAjjJ6">
    <mxGraphModel grid="1" page="1" gridSize="10" guides="1" tooltips="1" connect="1" arrows="1" fold="1" pageScale="1" pageWidth="1169" pageHeight="827" math="0" shadow="0">
      <root>
        <mxCell id="0" />
        <mxCell id="1" parent="0" />
        <mxCell id="p_ycwr4od1zy8IQmkrcR-7" style="edgeStyle=orthogonalEdgeStyle;rounded=0;orthogonalLoop=1;jettySize=auto;html=1;entryX=0;entryY=0.5;entryDx=0;entryDy=0;exitX=0.5;exitY=0;exitDx=0;exitDy=0;exitPerimeter=0;" edge="1" parent="1" source="p_ycwr4od1zy8IQmkrcR-1" target="p_ycwr4od1zy8IQmkrcR-2">
          <mxGeometry relative="1" as="geometry">
            <mxPoint x="70" y="-339.8" as="sourcePoint" />
            <mxPoint x="202.6400000000001" y="-470.00000000000006" as="targetPoint" />
          </mxGeometry>
        </mxCell>
        <mxCell id="p_ycwr4od1zy8IQmkrcR-1" value="Actor" style="shape=umlActor;verticalLabelPosition=bottom;verticalAlign=top;html=1;outlineConnect=0;" vertex="1" parent="1">
          <mxGeometry x="160" y="-300" width="30" height="60" as="geometry" />
        </mxCell>
        <mxCell id="p_ycwr4od1zy8IQmkrcR-2" value="Visualiza a forma geométrica e sua escrita" style="ellipse;whiteSpace=wrap;html=1;" vertex="1" parent="1">
          <mxGeometry x="290" y="-453" width="120" height="80" as="geometry" />
        </mxCell>
        <mxCell id="p_ycwr4od1zy8IQmkrcR-3" value="&lt;font style=&quot;font-size: 17px;&quot;&gt;Atividade de Matemática&lt;br&gt;&lt;br&gt;Formas Geométricas&lt;br&gt;&lt;/font&gt;" style="text;html=1;strokeColor=none;fillColor=none;align=center;verticalAlign=middle;whiteSpace=wrap;rounded=0;fontSize=16;" vertex="1" parent="1">
          <mxGeometry x="190" y="-530" width="320" height="30" as="geometry" />
        </mxCell>
        <mxCell id="p_ycwr4od1zy8IQmkrcR-10" style="edgeStyle=orthogonalEdgeStyle;rounded=0;orthogonalLoop=1;jettySize=auto;html=1;exitX=0;exitY=0.3333333333333333;exitDx=0;exitDy=0;exitPerimeter=0;" edge="1" parent="1" source="p_ycwr4od1zy8IQmkrcR-8" target="p_ycwr4od1zy8IQmkrcR-9">
          <mxGeometry relative="1" as="geometry" />
        </mxCell>
        <mxCell id="p_ycwr4od1zy8IQmkrcR-8" value="Professor" style="shape=umlActor;verticalLabelPosition=bottom;verticalAlign=top;html=1;outlineConnect=0;" vertex="1" parent="1">
          <mxGeometry x="510" y="-300" width="30" height="60" as="geometry" />
        </mxCell>
        <mxCell id="p_ycwr4od1zy8IQmkrcR-9" value="Reproduz o áudio correspondente a forma geométrica" style="ellipse;whiteSpace=wrap;html=1;" vertex="1" parent="1">
          <mxGeometry x="290" y="-320" width="120" height="80" as="geometry" />
        </mxCell>
      </root>
    </mxGraphModel>
  </diagram>
</mxfile>
